<?xml version="1.0" encoding="UTF-8" standalone="no"?>
<!-- Created with Inkscape (http://www.inkscape.org/) -->

<svg
   xmlns:dc="http://purl.org/dc/elements/1.1/"
   xmlns:cc="http://creativecommons.org/ns#"
   xmlns:rdf="http://www.w3.org/1999/02/22-rdf-syntax-ns#"
   xmlns:svg="http://www.w3.org/2000/svg"
   xmlns="http://www.w3.org/2000/svg"
   xmlns:sodipodi="http://sodipodi.sourceforge.net/DTD/sodipodi-0.dtd"
   xmlns:inkscape="http://www.inkscape.org/namespaces/inkscape"
   width="7086.6138"
   height="3543.3069"
   id="svg2"
   version="1.1"
   inkscape:version="0.48.4 r9939"
   sodipodi:docname="dessin_complex.svg">
  <defs
     id="defs4" />
  <sodipodi:namedview
     id="base"
     pagecolor="#ffffff"
     bordercolor="#666666"
     borderopacity="1.0"
     inkscape:pageopacity="0.0"
     inkscape:pageshadow="2"
     inkscape:zoom="0.15324668"
     inkscape:cx="2290.4249"
     inkscape:cy="1771.6534"
     inkscape:document-units="mm"
     inkscape:current-layer="layer1"
     showgrid="false"
     inkscape:window-width="1598"
     inkscape:window-height="1150"
     inkscape:window-x="1"
     inkscape:window-y="25"
     inkscape:window-maximized="1"
     units="mm" />
  <metadata
     id="metadata7">
    <rdf:RDF>
      <cc:Work
         rdf:about="">
        <dc:format>image/svg+xml</dc:format>
        <dc:type
           rdf:resource="http://purl.org/dc/dcmitype/StillImage" />
        <dc:title></dc:title>
      </cc:Work>
    </rdf:RDF>
  </metadata>
  <g
     inkscape:label="Calque 1"
     inkscape:groupmode="layer"
     id="layer1"
     transform="translate(0,2490.9448)">
    <path
       style="font-size:medium;font-style:normal;font-variant:normal;font-weight:normal;font-stretch:normal;text-indent:0;text-align:start;text-decoration:none;line-height:normal;letter-spacing:normal;word-spacing:normal;text-transform:none;direction:ltr;block-progression:tb;writing-mode:lr-tb;text-anchor:start;baseline-shift:baseline;color:#000000;fill:none;fill-opacity:1;fill-rule:nonzero;stroke:#000000;stroke-width:0.35433071;marker:none;visibility:visible;display:inline;overflow:visible;enable-background:accumulate;font-family:Sans;-inkscape-font-specification:Sans;stroke-miterlimit:4;stroke-dasharray:none"
       d="m 287.0625,-2256.0698 0,0.031 0,528.5625 0,0.062 0.0625,0 482.875,0 0.0625,0 0,-0.062 0,-528.5625 0,-0.031 -0.0625,0 -482.875,0 -0.0625,0 z m 0.0937,0.094 482.78125,0 0,528.4688 -482.78125,0 0,-528.4688 z"
       id="rect3971"
       inkscape:connector-curvature="0" />
    <path
       style="font-size:medium;font-style:normal;font-variant:normal;font-weight:normal;font-stretch:normal;text-indent:0;text-align:start;text-decoration:none;line-height:normal;letter-spacing:normal;word-spacing:normal;text-transform:none;direction:ltr;block-progression:tb;writing-mode:lr-tb;text-anchor:start;baseline-shift:baseline;color:#000000;fill:none;fill-opacity:1;fill-rule:nonzero;stroke:#000000;stroke-width:0.35433071;marker:none;visibility:visible;display:inline;overflow:visible;enable-background:accumulate;font-family:Sans;-inkscape-font-specification:Sans;stroke-miterlimit:4;stroke-dasharray:none"
       d="m 910.3125,-1277.2573 c -192.83737,0 -349.1875,168.001 -349.1875,375.25 0,207.249 156.35013,375.2812 349.1875,375.2813 192.8374,0 349.1563,-168.0323 349.1563,-375.2813 0,-207.249 -156.3189,-375.25 -349.1563,-375.25 z m 0,0.094 c 192.7793,0 349.0313,167.9575 349.0313,375.1563 0,207.1988 -156.252,375.1562 -349.0313,375.1563 -192.77929,0 -349.0625,-167.9575 -349.0625,-375.1563 0,-207.1988 156.28321,-375.1563 349.0625,-375.1563 z"
       id="path3975"
       inkscape:connector-curvature="0" />
    <g
       style="font-size:987.59881592000022010px;font-style:normal;font-weight:normal;line-height:125%;letter-spacing:0px;word-spacing:0px;fill:none;fill-opacity:1;stroke:#000000;font-family:Sans"
       id="text3981">
      <path
         d="M 506.34161,-2.3164638 374.21169,355.97744 l 264.74206,0 L 506.34161,-2.3164638 m -54.97377,-95.9629712 110.42975,0 274.38659,719.963395 -101.26746,0 -65.58273,-184.69255 -324.53809,0 -65.58273,184.69255 -102.71414,0 274.86881,-719.963395"
         style="stroke:#000000;fill:none"
         id="path3993" />
    </g>
    <path
       inkscape:connector-curvature="0"
       id="path3990"
       style="font-size:2136.49462891px;font-style:normal;font-weight:normal;line-height:125%;letter-spacing:0px;word-spacing:0px;fill:none;stroke:#000000;font-family:Sans"
       d="m 2532.1117,-1821.4326 0,205.5124 c -79.9805,-38.2497 -155.4393,-66.7641 -226.3766,-85.5433 -70.9391,-18.7763 -139.4432,-28.1652 -205.5124,-28.1666 -114.7537,0 -203.4265,22.2565 -266.0186,66.7654 -61.8975,44.5116 -92.8461,107.7997 -92.8457,189.8643 -4e-4,68.853 20.5161,121.0134 61.5494,156.4815 41.7279,34.7747 120.3164,62.9413 235.7655,84.5001 l 127.2716,26.0802 c 157.1761,29.9062 272.9723,82.7622 347.3891,158.568 75.1099,75.11177 112.6654,175.95533 112.6667,302.53095 0,150.91803 -50.7708,265.32331 -152.3087,343.21618 -100.8447,77.89304 -248.9804,116.83952 -444.4076,116.83955 -73.7208,-3e-5 -152.3092,-8.3457 -235.7655,-25.03705 -82.7617,-16.69135 -168.6526,-41.38063 -257.673,-74.06793 l 0,-216.98773 c 85.5431,47.98791 169.3475,84.1525 251.4137,108.49387 82.0654,24.34172 162.7403,36.5125 242.0248,36.51236 120.3162,1.4e-4 213.1618,-23.64594 278.5371,-70.9383 65.3736,-47.29194 98.0608,-114.75281 98.0618,-202.38279 -10e-4,-76.5016 -23.6471,-136.31226 -70.9383,-179.43217 -46.5976,-43.11872 -123.4474,-75.45821 -230.5495,-97.01854 l -128.3148,-25.0371 c -157.1775,-31.2955 -270.8873,-80.3264 -341.1298,-147.0926 -70.243,-66.7645 -105.3644,-159.6102 -105.3642,-278.5372 -2e-4,-137.7024 48.3352,-246.1962 145.0062,-325.4816 97.3659,-79.2824 231.2444,-118.9243 401.636,-118.9259 73.0239,0 147.4395,6.6086 223.247,19.821 75.8056,13.2155 153.3508,33.0365 232.6358,59.463" />
  </g>
</svg>
