<?xml version="1.0" encoding="UTF-8" standalone="no"?>
<!-- Created with Inkscape (http://www.inkscape.org/) -->

<svg
   xmlns:dc="http://purl.org/dc/elements/1.1/"
   xmlns:cc="http://creativecommons.org/ns#"
   xmlns:rdf="http://www.w3.org/1999/02/22-rdf-syntax-ns#"
   xmlns:svg="http://www.w3.org/2000/svg"
   xmlns="http://www.w3.org/2000/svg"
   xmlns:sodipodi="http://sodipodi.sourceforge.net/DTD/sodipodi-0.dtd"
   xmlns:inkscape="http://www.inkscape.org/namespaces/inkscape"
   width="7086.6138"
   height="3543.3069"
   id="svg2"
   version="1.1"
   inkscape:version="0.48.4 r9939"
   sodipodi:docname="dessin_simple.svg">
  <defs
     id="defs4" />
  <sodipodi:namedview
     id="base"
     pagecolor="#ffffff"
     bordercolor="#666666"
     borderopacity="1.0"
     inkscape:pageopacity="0.0"
     inkscape:pageshadow="2"
     inkscape:zoom="0.15324668"
     inkscape:cx="6063.1257"
     inkscape:cy="1771.6534"
     inkscape:document-units="mm"
     inkscape:current-layer="layer1"
     showgrid="true"
     inkscape:window-width="1598"
     inkscape:window-height="1150"
     inkscape:window-x="1"
     inkscape:window-y="25"
     inkscape:window-maximized="1"
     units="mm"
     inkscape:snap-global="true">
    <inkscape:grid
       type="xygrid"
       id="grid3043"
       empspacing="5"
       visible="true"
       enabled="true"
       snapvisiblegridlinesonly="true"
       units="mm"
       spacingx="10mm"
       spacingy="10mm" />
  </sodipodi:namedview>
  <metadata
     id="metadata7">
    <rdf:RDF>
      <cc:Work
         rdf:about="">
        <dc:format>image/svg+xml</dc:format>
        <dc:type
           rdf:resource="http://purl.org/dc/dcmitype/StillImage" />
        <dc:title></dc:title>
      </cc:Work>
    </rdf:RDF>
  </metadata>
  <g
     inkscape:label="Calque 1"
     inkscape:groupmode="layer"
     id="layer1"
     transform="translate(0,2490.9448)">
    <path
       style="fill:#000000;stroke:#000000;stroke-width:0;stroke-linecap:butt;stroke-linejoin:miter;stroke-miterlimit:4;stroke-opacity:1;stroke-dasharray:none"
       d="m 160.52556,266.04799 0,-354.330798 354.33068,0 0,354.330798 -354.33068,0"
       id="path3045"
       inkscape:connector-curvature="0" />
    <path
       style="fill:#000000;stroke:#000000;stroke-width:0;stroke-linecap:butt;stroke-linejoin:miter;stroke-miterlimit:4;stroke-opacity:1;stroke-dasharray:none"
       d="m 91.682375,-1579.669 0,-354.3307 531.495995,0 0,177.1653 -354.3307,0 0,177.1654 z"
       id="path3049"
       inkscape:connector-curvature="0" />
    <path
       style="fill:#000000;stroke:#000000;stroke-width:0;stroke-linecap:butt;stroke-linejoin:miter;stroke-opacity:1;stroke-miterlimit:4;stroke-dasharray:none"
       d="m 1240.1575,708.66122 0,354.33068 531.496,0 0,-177.16533 -354.3307,0 0,-177.16535 z"
       id="path3051"
       inkscape:connector-curvature="0"
       transform="translate(0,-2490.9448)" />
    <path
       style="fill:#000000;stroke:#000000;stroke-width:0;stroke-linecap:butt;stroke-linejoin:miter;stroke-miterlimit:4;stroke-opacity:1;stroke-dasharray:none"
       d="m 2340.5077,-767.74276 177.1654,0 0,177.1654 -177.1654,0 0,177.1653 -354.3307,0 0,-177.1653 177.1653,0 0,-177.1654 z"
       id="path3055"
       inkscape:connector-curvature="0" />
    <path
       style="fill:#000000;stroke:#000000;stroke-width:0;stroke-linecap:butt;stroke-linejoin:miter;stroke-opacity:1;stroke-miterlimit:4;stroke-dasharray:none"
       d="m 2834.6457,885.82657 177.1653,0 0,708.66143 -177.1653,0 z"
       id="path3057"
       inkscape:connector-curvature="0"
       transform="translate(0,-2490.9448)" />
    <path
       style="fill:#000000;stroke:#000000;stroke-width:0;stroke-linecap:butt;stroke-linejoin:miter;stroke-opacity:1;stroke-miterlimit:4;stroke-dasharray:none"
       d="m 1417.3228,2834.6455 531.4961,0 c 0,0 0,354.3307 0,354.3307 l -177.1654,0 0,-177.1654 -354.3307,0 z"
       id="path3059"
       inkscape:connector-curvature="0"
       transform="translate(0,-2490.9448)" />
    <path
       style="fill:#000000;stroke:#000000;stroke-width:0;stroke-linecap:butt;stroke-linejoin:miter;stroke-miterlimit:4;stroke-opacity:1;stroke-dasharray:none"
       d="m 4118.8495,-557.78708 531.4961,0 0,-354.3307 -177.1654,0 0,177.1654 -354.3307,0 0,177.1653 z"
       id="path3061"
       inkscape:connector-curvature="0" />
    <path
       inkscape:connector-curvature="0"
       id="path3831"
       d="m 3677.7306,-1737.258 0,-354.3308 354.3307,0 0,354.3308 -354.3307,0"
       style="fill:#000000;stroke:#000000;stroke-width:0;stroke-linecap:butt;stroke-linejoin:miter;stroke-miterlimit:4;stroke-opacity:1;stroke-dasharray:none" />
    <path
       style="fill:#000000;stroke:#000000;stroke-width:0;stroke-linecap:butt;stroke-linejoin:miter;stroke-miterlimit:4;stroke-opacity:1;stroke-dasharray:none"
       d="m 3318.8322,990.37037 0,-354.3308 354.3306,0 0,354.3308 -354.3306,0"
       id="path3833"
       inkscape:connector-curvature="0" />
    <path
       inkscape:connector-curvature="0"
       id="path3835"
       d="m 924.0005,866.38726 0,-354.3308 354.3307,0 0,354.3308 -354.3307,0"
       style="fill:#000000;stroke:#000000;stroke-width:0;stroke-linecap:butt;stroke-linejoin:miter;stroke-miterlimit:4;stroke-opacity:1;stroke-dasharray:none" />
    <path
       inkscape:connector-curvature="0"
       id="path3837"
       d="m 1025.7972,-517.65564 531.4961,0 c 0,0 0,354.3307 0,354.3307 l -177.1654,0 0,-177.1654 -354.3307,0 z"
       style="fill:#000000;stroke:#000000;stroke-width:0;stroke-linecap:butt;stroke-linejoin:miter;stroke-miterlimit:4;stroke-opacity:1;stroke-dasharray:none" />
    <path
       style="fill:#000000;stroke:#000000;stroke-width:0;stroke-linecap:butt;stroke-linejoin:miter;stroke-miterlimit:4;stroke-opacity:1;stroke-dasharray:none"
       d="m 2259.1029,-2116.3852 531.4961,0 c 0,0 0,354.3307 0,354.3307 l -177.1654,0 0,-177.1654 -354.3307,0 z"
       id="path3839"
       inkscape:connector-curvature="0" />
    <path
       inkscape:connector-curvature="0"
       id="path3841"
       d="m 2100.8614,384.48451 0,-177.1654 177.1654,0 0,177.1654 177.1653,0 0,354.3307 -177.1653,0 0,-177.1653 -177.1654,0 z"
       style="fill:#000000;stroke:#000000;stroke-width:0;stroke-linecap:butt;stroke-linejoin:miter;stroke-miterlimit:4;stroke-opacity:1;stroke-dasharray:none" />
    <path
       style="fill:#000000;stroke:#000000;stroke-width:0;stroke-linecap:butt;stroke-linejoin:miter;stroke-miterlimit:4;stroke-opacity:1;stroke-dasharray:none"
       d="m 1846.3697,-2069.076 0,-177.1654 177.1654,0 0,177.1654 177.1653,0 0,354.3307 -177.1653,0 0,-177.1653 -177.1654,0 z"
       id="path3843"
       inkscape:connector-curvature="0" />
    <path
       inkscape:connector-curvature="0"
       id="path3845"
       d="m 4097.642,580.24732 0,-177.1654 177.1654,0 0,177.1654 177.1653,0 0,354.3307 -177.1653,0 0,-177.1653 -177.1654,0 z"
       style="fill:#000000;stroke:#000000;stroke-width:0;stroke-linecap:butt;stroke-linejoin:miter;stroke-miterlimit:4;stroke-opacity:1;stroke-dasharray:none" />
    <path
       inkscape:connector-curvature="0"
       id="path3847"
       d="m 5464.3927,-123.84634 177.1653,0 0,708.66143 -177.1653,0 z"
       style="fill:#000000;stroke:#000000;stroke-width:0;stroke-linecap:butt;stroke-linejoin:miter;stroke-miterlimit:4;stroke-opacity:1;stroke-dasharray:none" />
    <path
       style="fill:#000000;stroke:#000000;stroke-width:0;stroke-linecap:butt;stroke-linejoin:miter;stroke-miterlimit:4;stroke-opacity:1;stroke-dasharray:none"
       d="m 668.20399,-1507.2368 177.1653,0 0,708.6614 -177.1653,0 z"
       id="path3849"
       inkscape:connector-curvature="0" />
    <path
       inkscape:connector-curvature="0"
       id="path3851"
       d="m 5016.5851,-2438.2944 0,531.4961 354.3307,0 0,-177.1654 -177.1654,0 0,-354.3307 -177.1653,0 z"
       style="fill:#000000;stroke:#000000;stroke-width:0;stroke-linecap:butt;stroke-linejoin:miter;stroke-miterlimit:4;stroke-opacity:1;stroke-dasharray:none" />
    <path
       style="fill:#000000;stroke:#000000;stroke-width:0;stroke-linecap:butt;stroke-linejoin:miter;stroke-miterlimit:4;stroke-opacity:1;stroke-dasharray:none"
       d="m 5172.5429,-945.92929 177.1654,0 0,177.16539 -177.1654,0 0,177.1653 -354.3307,0 0,-177.1653 177.1653,0 0,-177.16539 z"
       id="path3853"
       inkscape:connector-curvature="0" />
    <path
       style="fill:#000000;stroke:#000000;stroke-width:0;stroke-linecap:butt;stroke-linejoin:miter;stroke-miterlimit:4;stroke-opacity:1;stroke-dasharray:none"
       d="m 6716.4589,-1295.6922 0,177.1653 -708.6613,0 0,-177.1653 z"
       id="path3855"
       inkscape:connector-curvature="0" />
    <path
       inkscape:connector-curvature="0"
       id="path3857"
       d="m 3013.2791,140.59684 0,-531.4961 c 0,0 354.3307,0 354.3307,0 l 0,177.1654 -177.1654,0 0,354.3307 z"
       style="fill:#000000;stroke:#000000;stroke-width:0;stroke-linecap:butt;stroke-linejoin:miter;stroke-miterlimit:4;stroke-opacity:1;stroke-dasharray:none" />
    <path
       style="fill:#000000;stroke:#000000;stroke-width:0;stroke-linecap:butt;stroke-linejoin:miter;stroke-miterlimit:4;stroke-opacity:1;stroke-dasharray:none"
       d="m 3696.8177,4.215251 -177.1654,0 0,-177.165401 177.1654,0 0,-177.1653 354.3307,0 0,177.1653 -177.1653,0 0,177.165401 z"
       id="path3859"
       inkscape:connector-curvature="0" />
  </g>
</svg>
