<?xml version="1.0" encoding="UTF-8" standalone="no"?>
<!-- Created with Inkscape (http://www.inkscape.org/) -->

<svg
   xmlns:dc="http://purl.org/dc/elements/1.1/"
   xmlns:cc="http://creativecommons.org/ns#"
   xmlns:rdf="http://www.w3.org/1999/02/22-rdf-syntax-ns#"
   xmlns:svg="http://www.w3.org/2000/svg"
   xmlns="http://www.w3.org/2000/svg"
   xmlns:sodipodi="http://sodipodi.sourceforge.net/DTD/sodipodi-0.dtd"
   xmlns:inkscape="http://www.inkscape.org/namespaces/inkscape"
   width="7086.6138"
   height="3543.3069"
   id="svg2"
   version="1.1"
   inkscape:version="0.48.4 r9939"
   sodipodi:docname="dessin01.svg">
  <defs
     id="defs4" />
  <sodipodi:namedview
     id="base"
     pagecolor="#ffffff"
     bordercolor="#666666"
     borderopacity="1.0"
     inkscape:pageopacity="0.0"
     inkscape:pageshadow="2"
     inkscape:zoom="0.15324668"
     inkscape:cx="3543.3069"
     inkscape:cy="1771.6534"
     inkscape:document-units="mm"
     inkscape:current-layer="layer1"
     showgrid="false"
     inkscape:window-width="1598"
     inkscape:window-height="1150"
     inkscape:window-x="1"
     inkscape:window-y="25"
     inkscape:window-maximized="1"
     units="mm" />
  <metadata
     id="metadata7">
    <rdf:RDF>
      <cc:Work
         rdf:about="">
        <dc:format>image/svg+xml</dc:format>
        <dc:type
           rdf:resource="http://purl.org/dc/dcmitype/StillImage" />
        <dc:title></dc:title>
      </cc:Work>
    </rdf:RDF>
  </metadata>
  <g
     inkscape:label="Calque 1"
     inkscape:groupmode="layer"
     id="layer1"
     transform="translate(0,2490.9448)">
    <path
       style="font-size:medium;font-style:normal;font-variant:normal;font-weight:normal;font-stretch:normal;text-indent:0;text-align:start;text-decoration:none;line-height:normal;letter-spacing:normal;word-spacing:normal;text-transform:none;direction:ltr;block-progression:tb;writing-mode:lr-tb;text-anchor:start;baseline-shift:baseline;color:#000000;fill:#000000;fill-opacity:1;stroke:none;stroke-width:0;marker:none;visibility:visible;display:inline;overflow:visible;enable-background:accumulate;font-family:Sans;-inkscape-font-specification:Sans"
       d="m 4981.3431,-712.82182 0,21.28125 0,965.53125 0,21.25 21.25,0 1046,0 21.25,0 0,-21.25 0,-965.53125 0,-21.28125 -21.25,0 -1046,0 -21.25,0 z m 42.5,42.53125 1003.4688,0 0,923 -1003.4688,0 0,-923 z"
       id="rect3004"
       inkscape:connector-curvature="0" />
    <path
       style="fill:#000000;stroke:none;stroke-width:4.02303122999999996"
       d="m 4163.0386,-528.81187 c 0,279.3194 -205.8483,505.752536 -459.775,505.752536 -122.1627,0 -239.303,-53.4788 -325.5642,-148.631776 l 325.5642,-357.12076 z"
       id="path3006"
       inkscape:connector-curvature="0" />
    <path
       style="font-size:medium;font-style:normal;font-variant:normal;font-weight:normal;font-stretch:normal;text-indent:0;text-align:start;text-decoration:none;line-height:normal;letter-spacing:normal;word-spacing:normal;text-transform:none;direction:ltr;block-progression:tb;writing-mode:lr-tb;text-anchor:start;baseline-shift:baseline;color:#000000;fill:#000000;fill-opacity:1;fill-rule:nonzero;stroke:#ff0000;stroke-width:0;marker:none;visibility:visible;display:inline;overflow:visible;enable-background:accumulate;font-family:Sans;-inkscape-font-specification:Sans;stroke-miterlimit:4;stroke-dasharray:none"
       d="m 3790.4688,-2232.875 c -125.4156,-2.4992 -252.0527,31.4026 -362.7188,106.875 -263.4644,179.6783 -348.3472,550.9939 -163.5938,817.8438 162.9092,235.2987 496.9632,310.60714 735.5313,142.3124 207.1373,-146.1223 272.9035,-442.9645 121,-653.2187 -129.3104,-178.9824 -389.0467,-235.2382 -570.9375,-99.625 -150.8385,112.4614 -197.5767,335.2736 -78.0938,488.7187 95.5543,122.7151 281.6825,160.0036 406.5313,56.375 94.6333,-78.5486 122.5898,-228.5399 34.2813,-324.4687 -30.6803,-33.3277 -73.9842,-54.3384 -118.5313,-58.3125 -44.5471,-3.9741 -91.1633,9.9209 -124.2187,47.0312 -19.546,21.9437 -31.1409,52.3173 -31.0626,82.8438 0.078,30.5265 14.051,62.7211 45.875,78.8438 17.2283,8.7281 36.2133,7.6027 54.2188,0.6562 9.0027,-3.4732 18.4108,-9.1964 23.75,-20 5.3392,-10.8036 3.6396,-24.9519 -3,-36.1562 l -30.5,18.0624 c 1.0798,1.8223 1.2909,2.2639 1.4375,2.5626 -0.2051,0.1138 -1.2561,1.2413 -4.4375,2.4687 -7.7491,2.9896 -23.8238,1.6146 -25.4688,0.7813 -19.321,-9.7885 -26.3838,-26.3924 -26.4374,-47.3126 -0.054,-20.9201 9.1238,-44.6266 22.0937,-59.1874 25.1077,-28.1877 59.1958,-38.4392 94.5937,-35.2813 35.398,3.1579 71.2937,20.569 95.625,47 73.1553,79.468 49.3418,206.6364 -30.875,273.2187 -108.1988,89.8085 -271.9525,56.951 -355.9374,-50.9062 -106.4489,-136.7062 -64.3194,-337.353 71.3437,-438.5 165.101,-123.0952 402.8561,-71.6323 521.0313,91.9375 139.7495,193.4316 78.8229,468.3794 -112.7188,603.5 -221.7225,156.4111 -533.9579,86.0264 -685.9688,-133.5313 -173.0785,-249.9871 -93.1678,-599.5123 154.4376,-768.375 278.2336,-189.7506 665.1258,-100.3634 850.8124,175.3126 206.4264,306.4669 107.4827,730.7605 -196.2812,933.24995 l 19.6562,29.46875 c 319.8029,-213.1811 423.8005,-659.1466 206,-982.5 -122.7716,-182.2704 -328.4115,-287.5221 -537.4374,-291.6875 z"
       id="path3012"
       inkscape:connector-curvature="0" />
    <path
       inkscape:connector-curvature="0"
       id="path3050"
       style="font-size:236.41940307999996662px;font-style:normal;font-weight:bold;line-height:125%;letter-spacing:0px;word-spacing:0px;fill:#000000;stroke:none;stroke-width:6.06290817000000004;font-family:Sans;-inkscape-font-specification:Sans Bold"
       d="m 22.099384,137.84266 296.761436,0 c 88.23844,6.8e-4 155.88821,19.66092 202.94951,58.98074 47.36975,39.0115 71.0549,94.7413 71.05555,167.18954 -6.5e-4,72.75882 -23.6858,128.7982 -71.05555,168.11839 -47.0613,39.01113 -114.71107,58.51656 -202.94951,58.51632 l -117.96151,0 0,240.56718 -178.799926,0 0,-693.37217 m 178.799926,129.57187 0,193.66125 98.92047,0 c 34.67595,3.6e-4 61.45723,-8.35913 80.34387,-25.07845 18.88576,-17.02817 28.32886,-41.02293 28.32935,-71.98439 -4.9e-4,-30.96052 -9.44359,-54.80048 -28.32935,-71.51996 -18.88664,-16.71839 -45.66792,-25.07789 -80.34387,-25.07845 l -98.92047,0" />
    <path
       inkscape:connector-curvature="0"
       id="path3052"
       style="font-size:236.41940307999996662px;font-style:normal;font-weight:bold;line-height:125%;letter-spacing:0px;word-spacing:0px;fill:#000000;stroke:none;stroke-width:6.06290817000000004;font-family:Sans;-inkscape-font-specification:Sans Bold"
       d="m 1088.4828,-53.657504 c -54.4917,5.6e-4 -96.75349,20.12522 -126.78538,60.3739996 -30.03246,40.2497804 -45.04854,96.9084344 -45.0483,169.9760144 -2.4e-4,72.7587 15.01584,129.2625 45.0483,169.51164 30.03189,40.24947 72.29368,60.37412 126.78538,60.374 54.8006,1.2e-4 97.2172,-20.12453 127.2498,-60.374 30.0317,-40.24914 45.0478,-96.75294 45.0483,-169.51164 -5e-4,-73.06758 -15.0166,-129.726234 -45.0483,-169.9760144 C 1185.7,-33.532284 1143.2834,-53.656944 1088.4828,-53.657504 m 0,-129.571906 c 111.4592,7.3e-4 198.7692,31.89053 261.9303,95.669576 63.1598,63.78026 94.74,151.86429 94.7408,264.252344 -8e-4,112.07917 -31.581,200.00839 -94.7408,263.78797 -63.1611,63.77969 -150.4711,95.66954 -261.9303,95.66954 -111.15035,0 -198.46036,-31.88985 -261.93028,-95.66954 -63.16054,-63.77958 -94.74078,-151.7088 -94.74074,-263.78797 -4e-5,-112.388054 31.5802,-200.472084 94.74074,-264.252344 63.46992,-63.779046 150.77993,-95.668846 261.93028,-95.669576" />
    <g
       id="g3846">
      <path
         d="m 1843.5365,254.87534 c -54.4917,5.6e-4 -96.7535,20.12522 -126.7854,60.374 -30.0324,40.24978 -45.0485,96.90843 -45.0483,169.97601 -2e-4,72.7587 15.0159,129.2625 45.0483,169.51164 30.0319,40.24947 72.2937,60.37412 126.7854,60.374 54.8006,1.2e-4 97.2172,-20.12453 127.2498,-60.374 30.0317,-40.24914 45.0478,-96.75294 45.0483,-169.51164 -5e-4,-73.06758 -15.0166,-129.72623 -45.0483,-169.97601 -30.0326,-40.24878 -72.4492,-60.37344 -127.2498,-60.374 m 0,-129.57191 c 111.4592,7.3e-4 198.7692,31.89053 261.9303,95.66958 63.1598,63.78026 94.74,151.86429 94.7408,264.25234 -8e-4,112.07917 -31.581,200.00839 -94.7408,263.78797 -63.1611,63.77969 -150.4711,95.66954 -261.9303,95.66954 -111.1503,0 -198.4603,-31.88985 -261.9303,-95.66954 -63.1605,-63.77958 -94.7407,-151.7088 -94.7407,-263.78797 0,-112.38805 31.5802,-200.47208 94.7407,-264.25234 63.47,-63.77905 150.78,-95.66885 261.9303,-95.66958"
         style="font-size:236.41940307999996662px;font-style:normal;font-weight:bold;line-height:125%;letter-spacing:0px;word-spacing:0px;fill:#000000;stroke:none;stroke-width:6.06290817000000004;font-family:Sans;-inkscape-font-specification:Sans Bold"
         id="path3054"
         inkscape:connector-curvature="0" />
      <path
         d="m 2521.583,699.78525 305.1209,0 0,131.42958 -503.8907,0 0,-131.42958 253.1064,-223.38377 c 22.6012,-20.4339 39.3201,-40.40375 50.1568,-59.90958 10.836,-19.50502 16.2542,-39.78448 16.2546,-60.83841 -4e-4,-32.50859 -10.9916,-58.67065 -32.9735,-78.48621 -21.6731,-19.81448 -50.6216,-29.722 -86.8457,-29.7226 -27.8652,6e-4 -58.3617,6.03797 -91.4898,18.11221 -33.1285,11.76572 -68.5788,29.41351 -106.3511,52.94334 l 0,-152.32823 c 40.2492,-13.31257 80.034,-23.3749 119.3547,-30.18702 39.3203,-7.12032 77.8667,-10.68082 115.6394,-10.68155 82.9752,7.3e-4 147.3741,18.2677 193.1968,54.80101 46.1314,36.53464 69.1974,87.46546 69.1979,152.79269 -5e-4,37.77289 -9.7532,73.06843 -29.2581,105.88671 -19.506,32.50943 -60.5293,76.16444 -123.0701,130.96512 L 2521.583,699.78525"
         style="font-size:236.41940307999996662px;font-style:normal;font-weight:bold;line-height:125%;letter-spacing:0px;word-spacing:0px;fill:#000000;stroke:none;stroke-width:6.06290817000000004;font-family:Sans;-inkscape-font-specification:Sans Bold"
         id="path3056"
         inkscape:connector-curvature="0" />
    </g>
    <path
       sodipodi:type="star"
       style="fill:#000000;stroke:none"
       id="path3062"
       sodipodi:sides="5"
       sodipodi:cx="568.85742"
       sodipodi:cy="588.14075"
       sodipodi:r1="168.3842"
       sodipodi:r2="84.192101"
       sodipodi:arg1="1.1583859"
       sodipodi:arg2="1.7867044"
       inkscape:flatsided="false"
       inkscape:rounded="0"
       inkscape:randomized="0"
       d="m 636.34898,742.40717 -85.52841,-72.02907 -107.8232,29.62188 42.07399,-103.60056 -61.49128,-93.39229 111.53156,8.00041 69.81949,-87.34149 26.85631,108.54508 104.64211,39.41228 -94.93345,59.08414 z"
       transform="translate(1925.001,-2497.4702)"
       inkscape:transform-center-x="-11.147389"
       inkscape:transform-center-y="-5.1041392" />
    <path
       sodipodi:type="star"
       style="fill:#000000;stroke:none"
       id="path3064"
       sodipodi:sides="5"
       sodipodi:cx="1369.1145"
       sodipodi:cy="1349.8312"
       sodipodi:r1="367.93356"
       sodipodi:r2="183.96678"
       sodipodi:arg1="1.0191413"
       sodipodi:arg2="1.6474599"
       inkscape:flatsided="true"
       inkscape:rounded="0"
       inkscape:randomized="0"
       d="m 1561.9475,1663.1848 -431.2614,-33.1269 -101.7615,-420.3907 368.3694,-226.68889 329.4262,280.28939 z"
       transform="translate(-322.99527,-2399.3491)"
       inkscape:transform-center-x="-8.707935"
       inkscape:transform-center-y="-26.749592" />
    <path
       style="fill:#000000;stroke:#ff0000;stroke-width:0;stroke-miterlimit:4;stroke-dasharray:none"
       id="path3840"
       d="m 2241.5267,-272.23006 c 36.5176,-21.1023 -46.1337,26.6668 -66.7358,38.3163 -3.0833,1.7434 6.0074,-3.7566 8.9509,-5.727 8.6763,-5.8081 16.8738,-12.2669 25.1829,-18.5773 34.7539,-27.337 71.419,-45.5921 111.6778,-67.9189 4.9298,-2.7339 10.6748,-3.6367 15.9338,-5.6666 29.7405,-15.586 75.342,-40.1145 -61.2548,35.4125 -2.2297,1.2328 4.0914,-3.0423 6.0436,-4.6795 4.359,-3.6558 7.6108,-7.0362 11.6602,-11.0373 33.0514,-35.9142 75.0521,-52.3616 118.6885,-77.4667 14.1457,-6.5596 29.8338,-6.3814 44.2389,-12.1993 28.6923,-15.757 48.3134,-26.5801 -68.704,39.3329 -2.4164,1.3612 4.7281,-2.9057 7.0079,-4.4851 7.2286,-5.0077 13.7492,-10.8555 20.2897,-16.704 12.1024,-12.0982 22.6546,-25.6267 34.0093,-38.4186 11.1064,-11.0883 20.1753,-23.7317 27.0716,-37.7958 5.7048,-12.3721 5.5299,-26.0872 7.9631,-39.2152 4.0861,-15.0245 10.8154,-29.0529 14.7833,-44.1218 4.0212,-13.2078 6.7191,-26.747 10.3434,-40.056 4.1601,-12.5101 5.2037,-24.1229 1.8048,-36.7912 -4.3829,-12.6889 -5.2674,-26.1799 -9.6399,-38.8319 -4.6306,-14.0858 -13.5521,-26.0289 -21.7645,-38.1792 -7.9796,-12.6085 -14.369,-26.1394 -18.633,-40.4323 -3.4615,-13.6735 -4.8078,-27.5797 -2.1621,-41.4551 4.8726,-13.9381 13.9418,-25.6388 19.234,-39.4347 3.7921,-12.9752 6.9427,-26.1229 10.932,-39.0394 4.1748,-12.6036 5.2562,-25.8664 8.0138,-38.7889 3.0706,-12.6019 4.326,-25.491 5.0327,-38.4078 0.5394,-12.9756 0.5031,-25.966 0.504,-38.9501 -0.4688,-13.1937 -5.5537,-25.4866 -8.7669,-38.14114 -2.6116,-12.995 -3.5441,-26.1331 -7.3036,-38.8873 -5.5507,-14.3176 -16.5794,-25.3225 -24.7379,-38.11 -6.2787,-12.2496 -17.7292,-19.9102 -27.1349,-29.5325 -10.4467,-11.4162 -16.3705,-16.1682 -31.9699,-15.8824 -12.8397,0.6312 -26.8139,-3.1104 -38.2187,-9.0137 -9.0163,-6.1267 -17.941,-10.5689 -28.6707,-12.6987 -14.3431,-0.5934 -23.1143,-8.6235 -30.718,-19.8798 -4.3341,-6.1775 -5.2018,-12.6504 -5.6779,-19.9343 0,0 86.1315,-43.6474 86.1315,-43.6474 l 0,0 c -0.8609,5.6718 -0.7125,9.6724 2.8049,14.5752 7.5413,10.4856 14.363,12.0812 27.0093,14.0472 10.6982,3.2331 20.0477,8.6058 29.7097,14.1014 11.6534,4.4159 23.7179,6.5839 36.1919,6.3599 14.6697,2.509 25.8703,10.5072 35.641,21.6141 10.0426,9.9282 21.5597,18.5023 28.0248,31.4536 8.4937,13.5708 20.2138,25.0775 26.1367,40.1952 4.2473,12.8692 5.7101,26.0631 7.6223,39.4178 3.1522,13.4571 8.6101,26.3004 9.8755,40.1641 0.014,13.1185 0.066,26.24024 -0.3006,39.35504 -0.5158,13.3815 -1.3762,26.794 -4.3345,39.8973 -2.991,13.135 -4.3318,26.458 -7.7017,39.5162 -3.995,12.9841 -7.8887,25.9986 -10.8389,39.2658 -4.1939,14.2472 -11.3892,26.5128 -19.4698,38.8704 -4.3925,12.0667 -2.7655,24.4448 -0.1952,36.85 3.5763,13.4572 9.5868,26.0465 16.9119,37.8733 8.6607,12.7807 18.0559,25.3752 23.1078,40.1251 4.901,12.8202 5.8746,26.3777 10.0195,39.4452 4.397,14.8597 5.3656,26.3952 0.5723,41.4557 -3.6573,13.254 -6.2917,26.7117 -10.5572,39.8035 -3.3188,15.3634 -9.4157,29.532 -14.8293,44.2023 -4.189,13.1499 -1.8811,27.6191 -7.1834,40.6773 -5.9049,15.1683 -14.6102,29.2258 -26.1668,40.7698 -11.6314,12.7503 -22.683,25.9758 -33.6965,39.2592 -35.3264,33.5508 -76.7645,60.8107 -123.3328,77.2437 -14.6087,3.9806 -30.1091,5.3398 -43.2012,13.653 25.338,-14.6509 50.7668,-29.1458 76.014,-43.9526 2.0978,-1.2303 -4.4428,1.9996 -6.55,3.2137 -9.2846,5.3494 -17.1442,13.1732 -24.4839,20.8446 -4.9972,5.276 -10.7634,13.4105 -16.9975,17.2379 -33.0583,20.2957 -67.0129,44.1155 -103.7861,59.2453 -31.6618,12.3229 -71.2008,38.2536 59.2213,-37.1683 2.4975,-1.4443 -4.8838,3.0798 -7.2251,4.7656 -5.1048,3.6755 -9.7243,8.0007 -15.0438,11.3925 -11.3574,8.0866 -21.7906,17.9572 -33.8156,25.0667 -30.0264,17.7523 -60.268,35.1384 -90.4766,52.5789 -2.4953,1.4406 -5.0869,2.7076 -7.6303,4.0615 0,0 75.5488,-60.4319 75.5488,-60.4319 z"
       inkscape:connector-curvature="0" />
  </g>
</svg>
