<?xml version="1.0" encoding="UTF-8" standalone="no"?>
<!-- Created with Inkscape (http://www.inkscape.org/) -->

<svg
   xmlns:dc="http://purl.org/dc/elements/1.1/"
   xmlns:cc="http://creativecommons.org/ns#"
   xmlns:rdf="http://www.w3.org/1999/02/22-rdf-syntax-ns#"
   xmlns:svg="http://www.w3.org/2000/svg"
   xmlns="http://www.w3.org/2000/svg"
   xmlns:sodipodi="http://sodipodi.sourceforge.net/DTD/sodipodi-0.dtd"
   xmlns:inkscape="http://www.inkscape.org/namespaces/inkscape"
   width="7086.6138"
   height="3543.3069"
   id="svg2"
   version="1.1"
   inkscape:version="0.48.4 r9939"
   sodipodi:docname="dessin_tetris2.svg">
  <defs
     id="defs4">
    <inkscape:perspective
       sodipodi:type="inkscape:persp3d"
       inkscape:vp_x="2218.6451 : 1934.789 : 1"
       inkscape:vp_y="0 : 1000 : 0"
       inkscape:vp_z="6394.9185 : 1830.3822 : 1"
       inkscape:persp3d-origin="2851.6116 : 1239.8311 : 1"
       id="perspective4030" />
  </defs>
  <sodipodi:namedview
     id="base"
     pagecolor="#ffffff"
     bordercolor="#666666"
     borderopacity="1.0"
     inkscape:pageopacity="0.0"
     inkscape:pageshadow="2"
     inkscape:zoom="0.16297272"
     inkscape:cx="2822.417"
     inkscape:cy="1834.5729"
     inkscape:document-units="mm"
     inkscape:current-layer="layer1"
     showgrid="true"
     inkscape:window-width="1598"
     inkscape:window-height="1150"
     inkscape:window-x="1"
     inkscape:window-y="25"
     inkscape:window-maximized="1"
     units="mm"
     inkscape:snap-global="true">
    <inkscape:grid
       type="xygrid"
       id="grid3043"
       empspacing="5"
       visible="true"
       enabled="true"
       snapvisiblegridlinesonly="true"
       units="mm"
       spacingx="10mm"
       spacingy="10mm" />
  </sodipodi:namedview>
  <metadata
     id="metadata7">
    <rdf:RDF>
      <cc:Work
         rdf:about="">
        <dc:format>image/svg+xml</dc:format>
        <dc:type
           rdf:resource="http://purl.org/dc/dcmitype/StillImage" />
        <dc:title></dc:title>
      </cc:Work>
    </rdf:RDF>
  </metadata>
  <g
     inkscape:label="Calque 1"
     inkscape:groupmode="layer"
     id="layer1"
     transform="translate(0,2490.9448)">
    <g
       style="font-size:778.95928955px;font-style:normal;font-weight:bold;line-height:1000%;letter-spacing:0px;word-spacing:0px;fill:#000000;fill-opacity:1;stroke:none;font-family:Sans;-inkscape-font-specification:Sans Bold"
       id="text3955">
      <path
         d="m 476.12141,-1953.1396 c 23.07432,3e-4 40.57046,-5.071 52.48847,-15.2141 11.91731,-10.1423 17.87614,-25.1028 17.87651,-44.8814 -3.7e-4,-19.5243 -5.9592,-34.358 -17.87651,-44.5011 -11.91801,-10.3958 -29.41415,-15.594 -52.48847,-15.5944 l -81.0148,0 0,120.191 81.0148,0 m 4.94457,248.3693 c 29.41349,10e-5 51.47384,-6.2123 66.18111,-18.6372 14.9601,-12.4247 22.44033,-31.1887 22.44072,-56.292 -3.9e-4,-24.5958 -7.35384,-42.9795 -22.06037,-55.1509 -14.70727,-12.4246 -36.8944,-18.637 -66.56146,-18.6372 l -85.95937,0 0,148.7173 85.95937,0 m 136.16574,-204.2486 c 31.44189,9.1287 55.78435,25.9909 73.02743,50.5867 17.24206,24.5963 25.86334,54.7708 25.86388,90.5236 -5.4e-4,54.7707 -18.51094,95.595 -55.53128,122.4731 -37.02129,26.8782 -93.31322,40.3172 -168.87594,40.3172 l -243.04442,0 0,-567.8644 219.843,0 c 78.85912,6e-4 135.91174,11.9183 171.15805,35.7531 35.49895,23.8358 53.24865,61.9977 53.24917,114.4857 -5.2e-4,27.6392 -6.46648,51.221 -19.39791,70.7453 -12.93243,19.2715 -31.6964,33.598 -56.29198,42.9797"
         style=""
         id="path3995" />
      <path
         d="m 1038.6609,-1944.0112 c -30.1748,3e-4 -53.24942,10.9037 -69.22395,32.7102 -15.72137,21.5535 -23.58196,52.7423 -23.58178,93.5664 -1.8e-4,40.8245 7.86041,72.1401 23.58178,93.9467 15.97453,21.5534 39.04915,32.33 69.22395,32.3299 29.6671,10e-5 52.3613,-10.7765 68.0828,-32.3299 15.7209,-21.8066 23.5815,-53.1222 23.5818,-93.9467 -3e-4,-40.8241 -7.8609,-72.0129 -23.5818,-93.5664 -15.7215,-21.8065 -38.4157,-32.7099 -68.0828,-32.7102 m 0,-97.3699 c 73.2806,4e-4 130.46,19.7786 171.5384,59.3348 41.331,39.5568 61.9967,94.3273 61.9972,164.3117 -5e-4,69.9848 -20.6662,124.7553 -61.9972,164.3117 -41.0784,39.5565 -98.2578,59.3348 -171.5384,59.3348 -73.5348,0 -131.09456,-19.7783 -172.67948,-59.3348 -41.33156,-39.5564 -61.99729,-94.3269 -61.99725,-164.3117 -4e-5,-69.9844 20.66569,-124.7549 61.99725,-164.3117 41.58492,-39.5562 99.14468,-59.3344 172.67948,-59.3348"
         style=""
         id="path3997" />
      <path
         d="m 1799.7436,-1864.5178 0,259.3995 -136.9265,0 0,-42.219 0,-156.3243 c -3e-4,-36.7671 -0.8878,-62.1238 -2.6624,-76.0703 -1.5218,-13.9459 -4.311,-24.2154 -8.3678,-30.8084 -5.3252,-8.8746 -12.5519,-15.7209 -21.68,-20.539 -9.1287,-5.071 -19.525,-7.6067 -31.1888,-7.607 -28.3998,3e-4 -50.7137,11.0305 -66.9418,33.0906 -16.2285,21.807 -24.3427,52.1083 -24.3425,90.9039 l 0,209.5735 -136.1657,0 0,-425.9933 136.1657,0 0,62.3776 c 20.5388,-24.8493 42.3456,-43.1061 65.4204,-54.7706 23.0744,-11.9173 48.5579,-17.8761 76.4506,-17.8765 49.1917,4e-4 86.4661,15.0877 111.8233,45.2618 25.6098,30.1749 38.415,74.042 38.4155,131.6015"
         style=""
         id="path3999" />
      <path
         d="m 1926.781,-2031.1116 136.1657,0 0,418.3863 c -2e-4,57.0526 -13.6928,100.5394 -41.0779,130.4605 -27.3855,30.1743 -67.0687,45.2616 -119.05,45.2618 l -67.3221,0 0,-89.3826 23.5817,0 c 25.8639,-10e-5 43.6136,-5.8321 53.2492,-17.4961 9.6355,-11.6642 14.4533,-34.612 14.4534,-68.8436 l 0,-418.3863 m 0,-165.8332 136.1657,0 0,111.0626 -136.1657,0 0,-111.0626"
         style=""
         id="path4001" />
      <path
         d="m 2397.2754,-1944.0112 c -30.1748,3e-4 -53.2494,10.9037 -69.224,32.7102 -15.7213,21.5535 -23.5819,52.7423 -23.5817,93.5664 -2e-4,40.8245 7.8604,72.1401 23.5817,93.9467 15.9746,21.5534 39.0492,32.33 69.224,32.3299 29.6671,10e-5 52.3613,-10.7765 68.0828,-32.3299 15.7209,-21.8066 23.5815,-53.1222 23.5818,-93.9467 -3e-4,-40.8241 -7.8609,-72.0129 -23.5818,-93.5664 -15.7215,-21.8065 -38.4157,-32.7099 -68.0828,-32.7102 m 0,-97.3699 c 73.2806,4e-4 130.46,19.7786 171.5384,59.3348 41.331,39.5568 61.9967,94.3273 61.9972,164.3117 -5e-4,69.9848 -20.6662,124.7553 -61.9972,164.3117 -41.0784,39.5565 -98.2578,59.3348 -171.5384,59.3348 -73.5348,0 -131.0946,-19.7783 -172.6795,-59.3348 -41.3315,-39.5564 -61.9973,-94.3269 -61.9972,-164.3117 -1e-4,-69.9844 20.6657,-124.7549 61.9972,-164.3117 41.5849,-39.5562 99.1447,-59.3344 172.6795,-59.3348"
         style=""
         id="path4003" />
      <path
         d="m 2725.5184,-1770.9514 0,-260.1602 136.9264,0 0,42.5993 c -2e-4,23.075 -0.127,52.1084 -0.3803,87.1004 -0.2538,34.739 -0.3806,57.9404 -0.3804,69.6043 -2e-4,34.2318 0.8873,58.9546 2.6625,74.1685 1.7747,14.9606 4.8176,25.864 9.1284,32.7102 5.5783,8.875 12.8049,15.7213 21.68,20.5389 9.1282,4.8179 19.5245,7.2268 31.1888,7.2267 28.3993,10e-5 50.7132,-10.9033 66.9418,-32.7102 16.228,-21.8066 24.3422,-52.1079 24.3425,-90.9039 l 0,-210.3342 136.1657,0 0,425.9933 -136.1657,0 0,-61.6169 c -20.5393,24.8497 -42.3461,43.2333 -65.4204,55.1509 -22.8213,11.6641 -48.0513,17.4962 -75.6899,17.4962 -49.1922,0 -86.7202,-15.0873 -112.5839,-45.2618 -25.6104,-30.1745 -38.4156,-74.0416 -38.4155,-131.6015"
         style=""
         id="path4005" />
      <path
         d="m 3601.8478,-1915.1045 c -11.918,-5.5782 -23.8357,-9.6353 -35.753,-12.1713 -11.6645,-2.7889 -23.4553,-4.1835 -35.3727,-4.1838 -34.9926,3e-4 -61.9975,11.284 -81.0148,33.8512 -18.7642,22.3142 -28.1462,54.3905 -28.146,96.2289 l 0,196.2612 -136.1657,0 0,-425.9933 136.1657,0 0,69.9846 c 17.496,-27.8921 37.5278,-48.1774 60.0955,-60.8562 22.8208,-12.9315 50.0793,-19.3975 81.7755,-19.3979 4.5639,4e-4 9.5084,0.254 14.8337,0.7607 5.3246,0.254 13.0584,1.0147 23.2014,2.2821 l 0.3804,123.2338"
         style=""
         id="path4007" />
      <path
         d="m 3984.8613,-2172.9827 136.9265,0 0,217.9413 -19.398,158.9868 -98.1306,0 -19.3979,-158.9868 0,-217.9413 m 0,432.4594 136.9265,0 0,135.405 -136.9265,0 0,-135.405"
         style=""
         id="path4009" />
    </g>
    <g
       transform="translate(467.79854,-497.60478)"
       style="font-size:778.95928955px;font-style:normal;font-weight:bold;line-height:1000%;letter-spacing:0px;word-spacing:0px;fill:#000000;fill-opacity:1;stroke:none;font-family:Sans;-inkscape-font-specification:Sans Bold"
       id="text3959">
      <path
         d="m 546.87304,269.06901 c 9.06486,-21.21915 11.27443,-39.30094 6.62871,-54.24543 -4.64534,-14.94355 -16.0622,-26.30042 -34.25063,-34.07064 -17.95478,-7.6696 -33.9368,-8.01711 -47.94611,-1.04252 -14.24194,6.87597 -25.89537,20.92349 -34.96035,42.1426 l -31.82598,74.50172 110.52838,47.216 31.82598,-74.50173 m 230.34442,93.02271 c 11.55493,-27.04879 14.50819,-49.77611 8.85979,-68.18203 -5.54886,-18.63832 -19.86579,-32.88846 -42.95081,-42.75045 -22.61865,-9.6619 -42.41308,-10.12147 -59.38336,-1.37871 -17.20334,8.64401 -31.63232,26.60695 -43.287,53.88887 l -33.7684,79.04878 136.76138,58.42232 33.7684,-79.04878 M 642.88071,156.63555 c 20.74651,-25.32802 45.81584,-41.08931 75.20806,-47.28392 29.39228,-6.19347 60.52774,-2.26787 93.40646,11.77682 50.36725,21.51669 80.6379,54.57646 90.81203,99.17942 10.17383,44.60387 0.41868,101.64969 -29.26549,171.13764 L 777.56386,614.95068 255.35225,391.87004 341.71569,189.70104 C 372.69533,117.18193 406.06752,69.397732 441.83235,46.3483 c 35.86506,-23.281345 77.93177,-24.612523 126.20026,-3.993537 25.41702,10.858314 44.56284,26.068344 57.43754,45.630135 12.64176,19.463362 18.44527,42.346892 17.41056,68.650652"
         id="path3978"
         inkscape:connector-curvature="0" />
      <path
         d="m 988.32456,-240.87944 c -21.82013,20.84223 -30.97507,44.66467 -27.46485,71.46741 3.51857,26.44494 19.37669,54.42794 47.57439,83.949073 28.1978,29.521683 55.5119,46.737611 81.9426,51.647834 26.4388,4.552167 50.5683,-3.592761 72.3886,-24.434807 21.4533,-20.491269 30.4208,-43.95932 26.9025,-70.40423 -3.6938,-26.62763 -19.6395,-54.70231 -47.8371,-84.22412 -28.1979,-29.52101 -55.4245,-46.64525 -81.6799,-51.37279 -26.4307,-4.90999 -50.3728,2.88054 -71.82624,23.37163 m -67.25427,-70.41138 c 52.99195,-50.6153 108.00131,-75.80733 165.02811,-75.57618 57.2101,0.0572 109.9847,25.38951 158.3238,75.99714 48.3388,50.60863 71.2252,104.48899 68.6594,161.64126 -2.383,56.9778 -30.0703,110.774429 -83.062,161.390048 -53.1754,50.791115 -108.4598,76.245862 -165.8532,76.364318 -57.2102,-0.05648 -109.98479,-25.388839 -158.32387,-75.997143 -48.33884,-50.607951 -71.22527,-104.488317 -68.65935,-161.641263 2.74967,-57.3274 30.71201,-111.38674 83.88711,-162.17818"
         id="path3980"
         inkscape:connector-curvature="0" />
      <path
         d="m 1972.4555,-168.42302 -90.3189,243.167854 -128.3584,-47.675681 14.7,-39.577173 54.4297,-146.54251 c 12.8014,-34.46651 20.7983,-58.54557 23.9907,-72.23725 3.4292,-13.60312 4.3901,-24.20116 2.8829,-31.79415 -1.9021,-10.1734 -6.2928,-19.10753 -13.1721,-26.80241 -6.7919,-7.93219 -15.6547,-13.92901 -26.5885,-17.99048 -26.6229,-9.88807 -51.3811,-7.31746 -74.2747,7.71183 -22.8059,14.79201 -40.9627,40.37199 -54.4706,76.74004 L 1608.3053,-26.963285 1480.66,-74.3741 l 148.3244,-399.33724 127.6453,47.41081 -21.7189,58.47438 c 27.9056,-16.14303 54.7046,-25.66468 80.397,-28.56498 25.7799,-3.13739 51.7436,0.14961 77.8911,9.86102 46.1134,17.12821 75.8023,44.24975 89.0666,81.36473 13.5009,37.20367 10.2309,82.78441 -9.81,136.74236"
         id="path3982"
         inkscape:connector-curvature="0" />
      <path
         d="m 2122.5857,-282.71241 130.3107,39.49989 -121.3684,400.39586 c -16.5504,54.59933 -42.2692,92.24414 -77.1564,112.93454 -34.9611,20.93274 -77.3146,23.85965 -127.0607,8.78074 l -64.4273,-19.52928 25.9287,-85.53911 22.5677,6.84076 c 24.7518,7.50269 43.43,7.07038 56.0349,-1.29694 12.6048,-8.36747 23.8723,-28.93098 33.8025,-61.6906 l 121.3683,-400.39586 m 48.106,-158.70236 130.3107,39.49989 -32.2178,106.2869 -130.3106,-39.49989 32.2177,-106.2869"
         id="path3984"
         inkscape:connector-curvature="0" />
      <path
         d="m 2444.64,-162.42592 c -30.1491,1.24397 -52.7548,13.08911 -67.817,35.53544 -14.8197,22.18315 -21.3882,53.669388 -19.7054,94.458804 1.6823,40.7898547 10.8269,71.754829 27.4337,92.895015 16.8492,20.876637 40.3484,30.69308 70.4975,29.449356 29.6419,-1.222627 51.8727,-12.925409 66.6926,-35.108382 14.8087,-22.43606 21.372,-54.04897362 19.6898,-94.838836 -1.6829,-40.789409 -10.8223,-71.627707 -27.4181,-92.514987 -16.6069,-21.13999 -39.7312,-31.09879 -69.3731,-29.87641 m -4.0131,-97.28718 c 73.2184,-3.01979 131.1644,14.38503 173.8381,52.21451 42.9262,37.81982 65.8317,91.69207 68.7166,161.616929 2.8839,69.925322 -15.5069,125.501032 -55.1725,166.727301 -39.4132,41.21594 -95.7288,63.334 -168.9472,66.35423 -73.4723,3.03069 -131.7983,-14.35845 -174.9782,-52.16748 -42.9267,-37.819369 -65.8322,-91.691625 -68.7166,-161.616929 -2.8844,-69.924875 15.5064,-125.500581 55.1725,-166.727301 39.9194,-41.2364 96.6151,-63.37013 170.0873,-66.40126"
         id="path3986"
         inkscape:connector-curvature="0" />
      <path
         d="m 2864.907,28.611586 134.8213,-222.500736 117.1056,70.95855 -22.076,36.432872 c -11.9581,19.734676 -27.1124,44.499684 -45.4628,74.295098 -18.2196,29.578854 -30.3515,49.356033 -36.3959,59.331598 -17.7399,29.276475 -29.7928,50.880446 -36.1588,64.811972 -6.2351,13.71473 -9.2831,24.61665 -9.1442,32.70581 0.1716,10.48107 2.8042,20.08138 7.898,28.80095 5.3101,8.85092 12.9531,16.29869 22.929,22.34336 24.2883,14.71726 49.0226,16.95579 74.2029,6.71561 25.1796,-10.24031 47.822,-31.95038 67.9273,-65.13028 l 109.0003,-179.887294 116.455,70.564338 -220.7599,364.328686 -116.4551,-70.56434 31.9314,-52.69754 c -30.4438,10.60858 -58.6208,15.03029 -84.531,13.26514 -25.5625,-1.85091 -50.1626,-9.93783 -73.8004,-24.26082 -42.0714,-25.49261 -66.3484,-57.84378 -72.8311,-97.05362 -6.266,-39.07847 5.5155,-83.231548 35.3444,-132.459354"
         id="path3988"
         inkscape:connector-curvature="0" />
      <path
         d="m 3675.0443,399.84509 c -6.9307,-11.18575 -14.6926,-21.09756 -23.2856,-29.73546 -8.2431,-8.71146 -17.3541,-16.32449 -27.3333,-22.8391 -29.3021,-19.1276 -58.0834,-24.44046 -86.3439,-15.93859 -27.9102,8.42839 -53.3002,30.15985 -76.17,65.19445 l -107.2816,164.34455 -114.022,-74.43179 232.8593,-356.71686 114.022,74.43179 -38.2555,58.60349 c 29.8972,-13.7924 57.7599,-19.82898 83.5882,-18.10977 26.1783,1.6459 52.5384,11.13166 79.0803,28.4573 3.8214,2.4951 7.8233,5.41026 12.0056,8.74549 4.3198,3.12324 10.3801,7.98773 18.1808,14.5935 l -67.0443,103.401"
         id="path3990"
         inkscape:connector-curvature="0" />
      <path
         d="m 3711.7092,135.10037 130.6829,-40.875579 65.0603,208.003719 28.9477,157.52814 -93.6561,29.29416 -65.9745,-145.94673 -65.0603,-208.00371 m 129.0987,412.74035 130.6829,-40.87557 40.4214,129.23093 -130.6829,40.87557 -40.4214,-129.23093"
         id="path3992"
         inkscape:connector-curvature="0" />
    </g>
    <g
       style="font-size:812.19665527px;font-style:normal;font-weight:normal;line-height:1000%;letter-spacing:0px;word-spacing:0px;fill:#000000;fill-opacity:1;stroke:none;font-family:Sans;-inkscape-font-specification:eufm10"
       id="text4011"
       transform="translate(-380.43177,147.26391)">
      <path
         d="m 4533.0379,711.11853 -8.7248,-17.05296 c 11.8973,-23.26602 23.5303,-43.35941 34.8991,-60.28022 11.3685,-17.18507 25.5131,-31.59414 42.4341,-43.22727 16.9205,-11.6329 35.8242,-17.44941 56.711,-17.44953 10.8396,1.2e-4 24.0589,2.11521 39.658,6.34528 l 0,-214.54999 c -3e-4,-20.62183 -1.9832,-41.64057 -5.9487,-63.05629 -3.9661,-21.41492 -10.5757,-40.97953 -19.829,-58.69389 -8.9894,-17.97784 -21.2834,-32.25472 -36.882,-42.83069 -15.599,-10.83935 -35.0314,-16.25928 -58.2973,-16.25979 -19.3004,5.1e-4 -36.4855,6.74237 -51.5555,20.2256 -15.0701,13.48421 -22.6051,29.74399 -22.6051,48.77939 0,4.7594 1.7185,10.7081 5.1556,17.84611 3.4369,7.13887 7.0062,13.35196 10.7077,18.63928 3.7013,5.02376 9.7822,13.08755 18.2427,24.19141 28.818,35.95697 43.2271,58.95861 43.2272,69.00499 -10e-5,22.73756 -9.5181,44.02069 -28.5538,63.84944 -18.7715,19.82925 -40.7156,35.95684 -65.8323,48.38281 l -17.8461,-7.93161 c 34.6346,-23.26582 51.9519,-44.94552 51.952,-65.03918 -1e-4,-8.72449 -11.3687,-27.76033 -34.1059,-57.10758 -23.2661,-28.28904 -34.8991,-51.29068 -34.8991,-69.00499 0,-19.29983 5.2877,-38.46786 15.8632,-57.50416 10.5755,-19.29977 24.5879,-36.74929 42.0375,-52.34861 17.7139,-15.5983 36.7497,-27.76009 57.1076,-36.4854 20.3577,-8.9886 39.7901,-13.48317 58.2973,-13.48373 74.2925,5.6e-4 118.8417,38.99759 133.6476,116.99122 24.8521,-33.04789 53.9346,-60.80849 87.2477,-83.28189 33.5767,-22.47234 67.947,-33.70877 103.1109,-33.70933 24.0587,5.6e-4 40.0541,8.06435 47.9863,24.1914 8.1954,15.86374 13.8797,38.07222 17.0529,66.62551 1.8501,14.01296 5.0228,24.32404 9.5179,30.93327 4.7584,6.61011 13.4832,9.91494 26.1744,9.91451 7.4022,4.3e-4 17.0523,-1.98247 28.9503,-5.94871 l 4.3624,13.08716 c -20.8872,10.04711 -43.4923,25.38154 -67.8152,46.00332 -24.3242,20.35815 -36.486,38.07206 -36.4854,53.14178 -6e-4,6.87437 1.4535,14.54159 4.3623,23.00166 3.1721,8.46067 6.8735,16.52447 11.1043,24.1914 4.494,7.40311 9.3852,14.93813 14.6735,22.60509 20.0928,29.87594 30.1395,57.23996 30.1401,82.09214 -6e-4,26.17445 -7.4035,53.53847 -22.2085,82.09214 -14.8063,28.55385 -34.2387,52.21646 -58.2973,70.98789 -23.7954,18.77148 -48.6477,28.1572 -74.5572,28.15721 -7.932,-1e-5 -19.3006,-2.37949 -34.1059,-7.13845 -14.5417,-4.75896 -31.7268,-10.97204 -51.5554,-18.63927 -19.565,-7.6672 -31.3302,-12.16177 -35.2957,-13.48374 -3e-4,54.46369 2.9079,104.82935 8.7248,151.09713 -6.3456,4.75884 -16.9211,12.42606 -31.7264,23.00167 -14.5416,10.57532 -29.6117,21.94395 -45.2102,34.10591 l -17.8461,-9.12135 c 7.1382,-13.74827 12.5581,-45.34248 16.2598,-94.78271 3.7011,-49.176 5.5518,-90.94909 5.5521,-125.31941 -19.8293,-5.28768 -33.974,-8.8569 -42.4341,-10.70767 -8.4606,-2.11503 -16.26,-3.17258 -23.3982,-3.17264 -10.5757,6e-5 -20.4902,2.37954 -29.7436,7.13844 -9.2537,4.75902 -17.9784,10.97211 -26.1743,18.63928 -7.9317,7.66726 -15.7311,16.52421 -23.3982,26.57089 -7.6674,10.04671 -14.277,18.63927 -19.829,25.77773 m 229.2234,-112.23226 c 11.1039,3.70152 28.8178,9.78241 53.1418,18.2427 24.3232,8.46046 46.2673,15.4667 65.8323,21.01876 19.5642,5.2878 34.5021,7.93166 44.8136,7.93161 11.3682,5e-5 22.4724,-2.77601 33.3128,-8.32819 11.1037,-5.81644 19.8285,-13.48366 26.1743,-23.00166 6.3447,-9.78222 9.5174,-20.75427 9.5179,-32.91617 -5e-4,-13.21922 -3.702,-27.23172 -11.1042,-42.03753 -7.139,-14.80549 -16.1282,-29.74334 -26.9675,-44.81358 -25.9104,-33.84129 -38.8654,-59.61899 -38.8649,-77.33318 -5e-4,-16.12731 7.0058,-32.38709 21.0188,-48.77939 14.012,-16.65603 30.0074,-31.99046 47.9862,-46.00332 -3.1732,-0.5284 -6.478,-1.85034 -9.9145,-3.96581 -3.4376,-2.11471 -7.0068,-4.89077 -10.7077,-8.32819 -3.4375,-3.43664 -6.6102,-6.60928 -9.5179,-9.51793 -7.6677,-7.9312 -12.0301,-25.38072 -13.0872,-52.34861 -5e-4,-21.67926 -3.7019,-37.80684 -11.1042,-48.38281 -7.1389,-10.83935 -20.7549,-16.25928 -40.8478,-16.25979 -16.9212,5.1e-4 -33.8419,6.61018 -50.7623,19.82902 -16.6567,12.95544 -31.9912,28.81864 -46.0033,47.58964 -13.7485,18.7719 -24.7205,36.618 -32.9162,53.53836 l 0,293.86607"
         style="font-variant:normal;font-weight:bold;font-stretch:normal;font-family:eufm10;-inkscape-font-specification:eufm10 Bold"
         id="path4016"
         inkscape:connector-curvature="0" />
      <path
         d="m 5123.5461,711.11853 -12.6906,-13.08716 c 25.6455,-34.10588 50.2334,-62.79183 73.7639,-86.05794 20.0933,-7.13836 36.6175,-17.84602 49.5726,-32.12302 12.9548,-14.54115 19.4323,-31.19751 19.4324,-49.96913 -10e-5,-12.69039 -3.1728,-25.24876 -9.5179,-37.67513 -6.081,-12.42597 -14.5414,-25.90969 -25.3812,-40.45121 -5.8166,-7.66696 -12.8228,-16.9205 -21.0187,-27.76062 -7.9317,-11.10397 -15.0701,-22.07602 -21.4154,-32.91618 -6.3453,-10.83954 -9.5179,-19.29992 -9.5179,-25.38114 0,-29.0822 10.7076,-56.57842 32.123,-82.48872 21.6796,-25.90948 46.9286,-47.3248 75.7469,-64.24603 l 17.0529,7.93161 c -37.2787,28.02546 -55.9179,54.06754 -55.9178,78.12634 -1e-4,10.04708 1.9828,20.62255 5.9487,31.72643 3.9657,10.84021 8.8568,21.54787 14.6735,32.12301 5.8163,10.5758 11.8972,20.88688 18.2427,30.93327 11.6328,18.50737 21.0186,35.03153 28.1572,49.57255 7.4026,14.27713 11.104,26.8355 11.1042,37.67514 -2e-4,34.37048 -26.0423,74.42506 -78.1263,120.16386 10.311,9e-5 23.6625,3.17273 40.0546,9.51793 16.6562,6.08098 37.9393,14.54135 63.8495,25.38115 46.2674,17.18519 89.6268,25.77775 130.0783,25.77772 19.2999,3e-5 38.2035,-3.70138 56.711,-11.10425 18.5067,-7.66717 34.8987,-18.24264 49.176,-31.72643 14.5408,-13.74803 25.7772,-29.74343 33.7093,-47.98623 16.1271,-36.48524 24.1909,-85.52897 24.1914,-147.13133 -5e-4,-36.2207 -2.7765,-67.15394 -8.3281,-92.79981 -5.5527,-25.90953 -15.0706,-47.98582 -28.5538,-66.22893 -13.2199,-18.50664 -31.5947,-32.65132 -55.1247,-42.4341 -23.5309,-9.78184 -53.1422,-14.67299 -88.834,-14.67347 -5.5525,4.8e-4 -13.4841,0.26487 -23.7948,0.79316 -10.0471,0.52925 -18.904,1.05803 -26.5709,1.58632 -7.4032,0.26487 -13.6162,0.39706 -18.6393,0.39658 -14.2772,4.8e-4 -28.6862,-3.03997 -43.2273,-9.12135 -14.5415,-6.34479 -21.8121,-15.59832 -21.8119,-27.76063 -2e-4,-9.78179 2.6437,-18.24216 7.9316,-25.38114 5.5519,-7.40229 14.0123,-16.12705 25.3812,-26.17431 11.6327,-10.31051 19.1677,-17.71334 22.605,-22.2085 l 12.294,0 c -5.0236,7.93219 -7.5353,14.67405 -7.535,20.2256 -3e-4,12.69113 16.2595,21.54808 48.7794,26.57088 32.5192,5.0239 60.6764,7.53557 84.4716,7.53503 13.2189,5.4e-4 28.8178,2.11563 46.7965,6.34529 17.9778,3.96633 35.2952,9.78284 51.952,17.44954 16.6559,7.66772 29.743,16.26029 39.2615,25.77772 37.5424,37.5434 56.3138,92.27144 56.3144,164.18429 -6e-4,47.85431 -5.4205,92.27127 -16.2598,133.25101 -10.576,40.71574 -29.6119,74.29284 -57.1076,100.73142 -85.3974,74.55713 -157.3106,111.83565 -215.7397,111.83567 -43.0953,-2e-5 -86.4547,-8.59258 -130.0784,-25.77772 -22.473,-9.51792 -39.1294,-16.25978 -49.9691,-20.2256 -10.84,-3.96578 -22.8696,-5.94868 -36.0888,-5.94871 -15.3345,3e-5 -30.008,3.96583 -44.0204,11.89741 -14.0126,7.66724 -25.3812,18.11051 -34.1059,31.32986"
         style="font-variant:normal;font-weight:bold;font-stretch:normal;font-family:eufm10;-inkscape-font-specification:eufm10 Bold"
         id="path4018"
         inkscape:connector-curvature="0" />
      <path
         d="m 5796.1464,711.11853 -12.6906,-13.08716 c 25.6455,-34.10588 50.2335,-62.79183 73.764,-86.05794 20.0933,-7.13836 36.6174,-17.84602 49.5725,-32.12302 12.9548,-14.54115 19.4323,-31.19751 19.4325,-49.96913 -2e-4,-12.69039 -3.1728,-25.24876 -9.518,-37.67513 -6.081,-12.42597 -14.5414,-25.90969 -25.3811,-40.45121 -5.8166,-7.66696 -12.8229,-16.9205 -21.0188,-27.76062 -7.9317,-11.10397 -15.0701,-22.07602 -21.4153,-32.91618 -6.3454,-10.83954 -9.518,-19.29992 -9.5179,-25.38114 -1e-4,-29.0822 10.7076,-56.57842 32.123,-82.48872 21.6796,-25.90948 46.9285,-47.3248 75.7468,-64.24603 l 17.053,7.93161 c -37.2787,28.02546 -55.918,54.06754 -55.9179,78.12634 -1e-4,10.04708 1.9828,20.62255 5.9488,31.72643 3.9656,10.84021 8.8568,21.54787 14.6734,32.12301 5.8164,10.5758 11.8973,20.88688 18.2427,30.93327 11.6329,18.50737 21.0186,35.03153 28.1572,49.57255 7.4027,14.27713 11.1041,26.8355 11.1043,37.67514 -2e-4,34.37048 -26.0423,74.42506 -78.1264,120.16386 10.311,9e-5 23.6625,3.17273 40.0547,9.51793 16.6562,6.08098 37.9393,14.54135 63.8494,25.38115 46.2674,17.18519 89.6269,25.77775 130.0784,25.77772 19.2998,3e-5 38.2035,-3.70138 56.711,-11.10425 18.5066,-7.66717 34.8986,-18.24264 49.1759,-31.72643 14.5408,-13.74803 25.7773,-29.74343 33.7094,-47.98623 16.1271,-36.48524 24.1909,-85.52897 24.1914,-147.13133 -5e-4,-36.2207 -2.7766,-67.15394 -8.3282,-92.79981 -5.5526,-25.90953 -15.0706,-47.98582 -28.5538,-66.22893 -13.2198,-18.50664 -31.5947,-32.65132 -55.1247,-42.4341 -23.5308,-9.78184 -53.1421,-14.67299 -88.834,-14.67347 -5.5524,4.8e-4 -13.484,0.26487 -23.7948,0.79316 -10.047,0.52925 -18.904,1.05803 -26.5709,1.58632 -7.4031,0.26487 -13.6162,0.39706 -18.6393,0.39658 -14.2771,4.8e-4 -28.6862,-3.03997 -43.2272,-9.12135 -14.5415,-6.34479 -21.8122,-15.59832 -21.8119,-27.76063 -3e-4,-9.78179 2.6436,-18.24216 7.9316,-25.38114 5.5519,-7.40229 14.0122,-16.12705 25.3811,-26.17431 11.6328,-10.31051 19.1678,-17.71334 22.6051,-22.2085 l 12.294,0 c -5.0237,7.93219 -7.5353,14.67405 -7.535,20.2256 -3e-4,12.69113 16.2595,21.54808 48.7793,26.57088 32.5193,5.0239 60.6765,7.53557 84.4717,7.53503 13.2189,5.4e-4 28.8177,2.11563 46.7965,6.34529 17.9778,3.96633 35.2951,9.78284 51.952,17.44954 16.6558,7.66772 29.743,16.26029 39.2614,25.77772 37.5424,37.5434 56.3139,92.27144 56.3145,164.18429 -6e-4,47.85431 -5.4206,92.27127 -16.2598,133.25101 -10.5761,40.71574 -29.6119,74.29284 -57.1076,100.73142 -85.3974,74.55713 -157.3106,111.83565 -215.7398,111.83567 -43.0953,-2e-5 -86.4547,-8.59258 -130.0783,-25.77772 -22.4731,-9.51792 -39.1294,-16.25978 -49.9692,-20.2256 -10.8399,-3.96578 -22.8695,-5.94868 -36.0888,-5.94871 -15.3345,3e-5 -30.008,3.96583 -44.0204,11.89741 -14.0125,7.66724 -25.3812,18.11051 -34.1059,31.32986"
         style="font-variant:normal;font-weight:bold;font-stretch:normal;font-family:eufm10;-inkscape-font-specification:eufm10 Bold"
         id="path4020"
         inkscape:connector-curvature="0" />
      <path
         d="m 6496.5074,697.23821 -1.5864,-13.08715 81.299,-75.35028 c 33.8414,-33.04824 62.5273,-64.90684 86.058,-95.57587 23.7946,-30.93306 35.692,-59.48682 35.6922,-85.66137 -2e-4,-11.36836 -3.1729,-22.20821 -9.5179,-32.51959 -6.3455,-10.57517 -14.8059,-18.90335 -25.3812,-24.98457 -10.5757,-6.08056 -21.4155,-9.12101 -32.5196,-9.12135 -16.1277,3.4e-4 -46.5322,12.95529 -91.2135,38.86488 l -7.9316,-13.48373 c 54.728,-48.91122 102.9786,-73.36699 144.7519,-73.36737 22.737,3.8e-4 42.3016,8.19637 58.6939,24.58798 16.3917,16.39233 24.5877,35.82475 24.588,58.29732 -3e-4,21.15123 -9.5183,46.66455 -28.5538,76.54002 -19.0361,29.61153 -38.9973,56.18239 -59.8837,79.71266 -20.6223,23.26617 -46.5322,50.76238 -77.7297,82.48872 -2.3796,2.37954 -3.5694,4.09806 -3.5692,5.15554 -2e-4,3.70148 3.8334,5.55218 11.5008,5.55213 l 231.6029,-6.74187 7.9316,5.15555 -20.2256,53.53835 -324.0061,0"
         style="font-variant:normal;font-weight:bold;font-stretch:normal;font-family:eufm10;-inkscape-font-specification:eufm10 Bold"
         id="path4022"
         inkscape:connector-curvature="0" />
    </g>
    <path
       sodipodi:type="star"
       style="fill:#000000;stroke:#000000;stroke-width:0;stroke-miterlimit:4;stroke-dasharray:none"
       id="path4024"
       sodipodi:sides="11"
       sodipodi:cx="5492.126"
       sodipodi:cy="531.49585"
       sodipodi:r1="1278.6102"
       sodipodi:r2="199.21188"
       sodipodi:arg1="-0.22046798"
       sodipodi:arg2="0.38446023"
       inkscape:flatsided="false"
       inkscape:rounded="0"
       inkscape:randomized="0"
       d="M 6739.7877,251.88131 5676.7956,606.21202 6692.8969,970.806 5607.0853,694.19103 6264.7697,1550.2528 5500.8763,730.51546 5591.3337,1806.2515 5391.8891,703.65258 4886.3999,1657.5243 5314.7264,622.13115 4373.7798,1151.291 l 920.107,-639.45735 -1077.66,-63.55655 1119.76,-40.49834 -872.2241,-636.09416 963.8971,571.31858 -389.8631,-1006.67638 502.0037,1001.74588 216.2767,-1057.64595 -119.2724,1114.12595 753.7501,-772.82042 -702.6802,872.7789 z"
       transform="translate(45.67799,-1720.9444)"
       inkscape:transform-center-x="116.96212"
       inkscape:transform-center-y="-40.491244" />
    <path
       style="fill:#000000;stroke:#000000;stroke-width:0;stroke-miterlimit:4;stroke-dasharray:none"
       d="m 835.83971,408.71393 c 10.7888,-71.9831 94.746,-10.8323 135.6897,-35.1728 48.64849,-35.3684 78.34049,-92.8177 132.48849,-121.9758 37.6379,-24.2565 91.435,-23.9578 122.8262,10.6751 44.8095,38.6849 78.4839,88.468 122.8812,127.4195 20.4391,18.1069 35.008,91.4335 46.8487,80.0525 1.0888,-50.4858 -8.5132,-115.4863 40.3096,-147.688 48.7612,-33.1887 127.3032,-45.566 168.8167,5.2994 34.3611,47.8862 24.997,109.8383 21.3113,164.8756 32.3502,59.4198 73.7952,-29.1462 52.1214,-62.5241 6.345,-52.7672 45.7773,-105.5388 102.443,-107.0557 50.2723,-9.1699 119.7051,10.3829 125.8428,69.3523 11.4253,55.0754 20.3305,110.8737 36.9295,164.6459 13.2963,84.0736 20.7249,173.77 -7.3169,255.39824 -37.2405,60.65413 -118.6306,70.69233 -182.2341,53.80963 -86.8996,-13.1943 -176.4424,-60.78183 -264.0257,-24.0331 -53.5067,9.6713 -90.4675,-46.51053 -99.2005,-92.53197 -39.8044,-53.0181 -78.2913,31.85394 -117.8195,43.96634 -73.8545,45.74033 -163.995,84.86943 -251.6904,57.85733 -68.65619,-16.3755 -145.38319,-55.16083 -166.05949,-127.83717 -17.4416,-84.6454 6.3466,-172.8569 -18.4684,-256.5943 13.1898,-55.0045 37.3509,20.6107 31.9663,42.5276 6.7598,78.9998 -22.6303,165.4421 23.2687,237.0862 37.4435,58.25604 108.49329,85.92274 174.30229,96.35847 72.4906,10.9168 145.592,-12.52603 204.4175,-54.54193 43.7196,-11.15254 61.6292,-89.15744 112.3649,-57.83094 44.8491,26.6009 27.3393,103.95394 95.201,97.84514 53.9832,2.6812 106.389,-27.349 160.2157,-9.8335 60.7941,15.1161 120.332,43.24573 184.593,35.38713 61.5248,13.4795 113.0134,-29.38233 105.7961,-92.94577 6.1861,-62.7692 8.7491,-126.1488 -5.9748,-187.9978 -13.9008,-70.6017 -28.494,-142.015 -49.0045,-210.6 -37.4339,-48.0792 -110.5084,-27.0213 -150.5643,6.3267 -48.5295,41.4273 -1.65,120.7423 -53.8079,160.6867 -59.6104,32.3201 -83.8193,-62.6524 -59.599,-103.6002 6.619,-57.9694 -37.1482,-117.8458 -97.4189,-119.8884 -59.4444,-9.6206 -105.8238,48.2285 -92.367,104.6439 14.1002,36.5692 -9.7465,116.4264 -53.8719,69.5876 -29.9885,-41.0241 -35.7434,-100.9847 -84.625,-127.0516 -44.9074,-36.0033 -72.8672,-108.7679 -139.5678,-105.9921 -69.7864,14.5162 -105.4637,84.5894 -159.37089,124.6556 -32.0635,43.5688 -77.7294,29.2781 -117.366,9.3109 -17.1405,3.281 -7.3327,34.7816 -30.2811,27.9274 z"
       id="path4076"
       inkscape:connector-curvature="0" />
    <path
       style="font-size:medium;font-style:normal;font-variant:normal;font-weight:normal;font-stretch:normal;text-indent:0;text-align:start;text-decoration:none;line-height:normal;letter-spacing:normal;word-spacing:normal;text-transform:none;direction:ltr;block-progression:tb;writing-mode:lr-tb;text-anchor:start;baseline-shift:baseline;color:#000000;fill:#000000;fill-opacity:1;stroke:none;stroke-width:0;marker:none;visibility:visible;display:inline;overflow:visible;enable-background:accumulate;font-family:Sans;-inkscape-font-specification:Sans"
       d="m 721.26592,-1069.2536 c -2.9478,0.2495 -6.1405,1.1256 -9.5624,2.7187 l -0.094,0.031 -0.062,0.062 c -9.9902,6.1487 -18.0906,15.8086 -27,22.7188 -8.9094,6.9102 -18.2862,11.1655 -31.5937,7.1875 l -0.063,-0.031 -0.094,-0.031 c -36.0647,-7.1865 -70.6336,-28.6133 -109.8125,-24.4375 -88.9453,9.0547 -161.6097,80.214 -189.4062,162.49998 l -1.5313,4.46875 4.0937,-2.375 c 2.3146,-1.34351 4.536,-2.79333 6.6876,-4.375 l 0.031,-0.0312 c 35.1323,-27.02975 51.979,-69.46898 81.3438,-100.06253 l 0.031,0 0.031,-0.031 c 33.5889,-37.3694 80.5602,-51.4873 126.9063,-35.6562 l 0.031,0 c 38.5658,12.9136 82.513,30.94 123.4374,13.0937 2.8432,0.2377 5.4391,-1.2342 7.7188,-3.25 2.4654,-2.1799 4.7327,-5.0504 6.7188,-7.7187 1.9259,-2.5876 3.5708,-4.9444 4.7187,-6.2188 4.9435,25.4814 13.7826,50.10711 25.3125,73.28128 l 0.031,0.0625 0.063,0.0625 c 20.6264,33.29666 39.9143,70.59841 36.1562,110.5 l 0,0.0937 0,0.0937 c 0.2055,26.30463 -16.1794,52.32356 -41.4375,60.8125 -0.022,0.007 -0.04,0.0238 -0.062,0.0312 -42.4246,12.21357 -86.2616,-5.93699 -123.9062,-26 -0.02,-0.012 -0.043,-0.0193 -0.063,-0.0312 -29.4817,-17.71058 -60.5811,-32.4484 -92.9062,-44.21875 -0.029,-0.0128 -0.065,-0.0185 -0.094,-0.0312 -11.112,-4.85804 -23.7613,-9.01914 -34.625,-15.03125 -10.8553,-6.00755 -19.8435,-13.75382 -24.0624,-25.875 -0.01,-0.0326 -0.023,-0.0611 -0.031,-0.0937 0,-0.009 0,-0.0219 0,-0.0312 -2.9754,-11.48487 1.2879,-21.41883 8.9375,-29.53125 7.6782,-8.14268 18.7865,-14.20554 28.8125,-17.25 l 0,-0.0312 0.031,0 c 43.7875,-13.54233 89.9398,6.70776 124.75,33.65625 2.434,5.22509 6.0693,8.36454 10.0312,9.53125 4.0768,1.20057 8.3379,0.36625 11.7812,-1.75 3.4434,-2.11625 6.1498,-5.53118 7.0938,-9.6875 0.944,-4.15632 0.048,-8.99348 -3.375,-13.59375 l -0.094,-0.125 -0.125,-0.0937 c -32.3134,-30.60654 -79.6275,-44.49909 -123.4687,-37.21875 l -0.031,0 -0.062,0.0312 c -27.6761,6.2111 -56.4675,18.25469 -74.5938,41.5 -0.036,0.0467 -0.089,0.0782 -0.125,0.125 -22.9447,25.04249 -2.9759,71.64139 31.1875,71.15625 63.4384,24.98008 119.9238,67.98146 188.0937,83.15625 0.052,0.0116 0.1042,0.0197 0.1563,0.0312 37.4999,12.40736 82.4718,2.50349 107.7813,-29 l 0.031,0 c 0,-0.006 0,-0.0251 0,-0.0312 34.2851,-41.59328 29.7736,-103.23213 3.75,-147.5 l -0.094,-0.125 -0.094,-0.125 c -16.9712,-20.02583 -22.9512,-46.44373 -28.1861,-72.03153 -1.4314,-9.3929 -3.9088,-22.3563 -9.5625,-31.7812 -2.8353,-4.7266 -6.5489,-8.6237 -11.4375,-10.4688 -2.4443,-0.9225 -5.1459,-1.2808 -8.0938,-1.0312 z m 0.2813,3.5 c 2.4611,-0.2125 4.6137,0.1082 6.5625,0.8437 3.8976,1.471 7.0798,4.6738 9.6562,8.9688 5.1529,8.5899 7.6843,21.3259 9.0938,30.5937 l 0,0.062 0,0.031 c 5.2371,25.59844 11.2658,52.66246 28.9062,73.53128 0.024,0.0289 0.038,0.0648 0.063,0.0937 25.2573,43.17012 29.4485,103.15348 -3.5938,143.21875 -24.2757,30.24915 -67.9234,39.88598 -104.125,27.84375 l -0.062,-0.0312 -0.094,0 c -67.3309,-14.94186 -123.7398,-57.89455 -187.9382,-83.12495 l -0.3437,-0.15625 -0.375,0.0312 c -31.2457,0.87132 -49.8785,-42.63665 -28.8437,-65.375 l 0.031,-0.0625 0.062,-0.0625 c 17.3411,-22.33451 45.3368,-34.18251 72.5937,-40.3125 42.6631,-7.0847 88.8687,6.477 120.3126,36.1875 2.8267,3.85833 3.3934,7.45422 2.6874,10.5625 -0.7133,3.14077 -2.7833,5.81835 -5.4687,7.46875 -2.6854,1.6504 -5.9273,2.23022 -8.9375,1.34375 -3.0102,-0.88647 -5.9292,-3.20829 -8.0312,-7.96875 l -0.1876,-0.40625 -0.3437,-0.28125 c -35.3639,-27.47123 -82.7396,-48.58483 -128.2813,-34.5 -10.5749,3.21116 -22.1363,9.48173 -30.375,18.21875 -8.2386,8.73702 -13.1325,20.16366 -9.75,33 l 0.031,0.0625 0.031,0.0625 c 4.5602,13.23518 14.4145,21.68153 25.7187,27.9375 11.3042,6.25597 24.1316,10.44643 35.0313,15.21875 l 0.031,0.0312 0.062,0 c 32.1725,11.70827 63.1401,26.40734 92.4687,44.03125 l 0.031,0 0.031,0.0312 c 37.9001,20.20491 82.7347,38.97691 126.7187,26.28125 l 0.031,0 0.031,-0.0312 c 26.8628,-8.98976 44.0449,-36.28375 43.9062,-64.03125 -3e-4,-0.0625 5e-4,-0.12497 0,-0.1875 3.7996,-41.09414 -15.9316,-79.00242 -36.5937,-112.375 -0.032,-0.0511 -0.062,-0.10515 -0.094,-0.15625 -11.5553,-23.25712 -20.3749,-47.93413 -25.1876,-73.43753 l 0,-0.031 -0.031,-0.031 c -0.1294,-0.5737 -0.2814,-1.152 -0.7812,-1.6875 -0.4999,-0.5354 -1.4701,-0.8262 -2.1563,-0.7187 -1.3724,0.215 -1.9375,0.9716 -2.6875,1.7812 -1.5,1.6193 -3.1837,4.0793 -5.125,6.6875 -1.9413,2.6082 -4.1176,5.3296 -6.2188,7.1875 -2.1011,1.8579 -3.9572,2.71 -5.4062,2.4375 l -0.5625,-0.125 -0.5,0.2188 c -39.3547,17.3606 -82.3797,-0.089 -121.2187,-13.0938 -47.6415,-16.2735 -96.2947,-1.6161 -130.6876,36.625 -0.01,0.011 -0.021,0.02 -0.031,0.031 -29.9896,31.26122 -46.7744,73.36909 -80.875,99.62503 -0.012,0.009 -0.02,0.0223 -0.031,0.0312 -0.6023,0.44219 -1.2599,0.79549 -1.875,1.21875 28.6298,-78.92363 99.0873,-146.36418 184.5312,-155.06248 37.6211,-4.0097 71.7108,16.9542 108.5938,24.3437 0.052,0.01 0.1041,0.021 0.1562,0.031 14.3666,4.2348 25.3232,-0.5979 34.625,-7.8125 9.3119,-7.2224 17.3355,-16.7154 26.5938,-22.4375 3.0656,-1.4132 5.791,-2.1654 8.2187,-2.375 z"
       id="path4171"
       inkscape:connector-curvature="0" />
  </g>
</svg>
